<?xml version="1.0" encoding="UTF-8" standalone="no"?>
<svg xmlns="http://www.w3.org/2000/svg" xmlns:xlink="http://www.w3.org/1999/xlink" contentScriptType="application/ecmascript" contentStyleType="text/css" height="965px" preserveAspectRatio="none" style="width:688px;height:965px;" version="1.1" viewBox="0 0 688 965" width="688px" zoomAndPan="magnify"><defs><filter height="300%" id="fxuehu8tmd7tb" width="300%" x="-1" y="-1"><feGaussianBlur result="blurOut" stdDeviation="2.0"/><feColorMatrix in="blurOut" result="blurOut2" type="matrix" values="0 0 0 0 0 0 0 0 0 0 0 0 0 0 0 0 0 0 .4 0"/><feOffset dx="4.0" dy="4.0" in="blurOut2" result="blurOut3"/><feBlend in="SourceGraphic" in2="blurOut3" mode="normal"/></filter></defs><g><text fill="#000000" font-family="sans-serif" font-size="18" lengthAdjust="spacingAndGlyphs" textLength="72" x="305.5" y="26.708">creation</text><rect fill="#FFFFFF" filter="url(#fxuehu8tmd7tb)" height="34.1328" style="stroke: #A80036; stroke-width: 1.0;" width="10" x="169.5" y="186.5156"/><rect fill="#FFFFFF" filter="url(#fxuehu8tmd7tb)" height="306.4609" style="stroke: #A80036; stroke-width: 1.0;" width="10" x="169.5" y="306.9141"/><rect fill="#FFFFFF" filter="url(#fxuehu8tmd7tb)" height="70.832" style="stroke: #A80036; stroke-width: 1.0;" width="10" x="288" y="683.0742"/><rect fill="#FFFFFF" filter="url(#fxuehu8tmd7tb)" height="97.3984" style="stroke: #A80036; stroke-width: 1.0;" width="10" x="423" y="152.3828"/><rect fill="#FFFFFF" filter="url(#fxuehu8tmd7tb)" height="29.1328" style="stroke: #A80036; stroke-width: 1.0;" width="10" x="423" y="336.0469"/><rect fill="#FFFFFF" filter="url(#fxuehu8tmd7tb)" height="29.1328" style="stroke: #A80036; stroke-width: 1.0;" width="10" x="423" y="442.5781"/><rect fill="#FFFFFF" filter="url(#fxuehu8tmd7tb)" height="41.6992" style="stroke: #A80036; stroke-width: 1.0;" width="10" x="423" y="513.4102"/><rect fill="#FFFFFF" filter="url(#fxuehu8tmd7tb)" height="29.1328" style="stroke: #A80036; stroke-width: 1.0;" width="10" x="423" y="584.2422"/><rect fill="#FFFFFF" filter="url(#fxuehu8tmd7tb)" height="29.1328" style="stroke: #A80036; stroke-width: 1.0;" width="10" x="423" y="724.7734"/><line style="stroke: #A80036; stroke-width: 1.0;" x1="27" x2="27" y1="121.25" y2="257.7813"/><line style="stroke: #A80036; stroke-width: 1.0; stroke-dasharray: 1.0,4.0;" x1="27" x2="27" y1="257.7813" y2="285.7813"/><line style="stroke: #A80036; stroke-width: 1.0;" x1="27" x2="27" y1="285.7813" y2="621.375"/><line style="stroke: #A80036; stroke-width: 1.0; stroke-dasharray: 1.0,4.0;" x1="27" x2="27" y1="621.375" y2="649.375"/><line style="stroke: #A80036; stroke-width: 1.0;" x1="27" x2="27" y1="649.375" y2="761.9063"/><line style="stroke: #A80036; stroke-width: 1.0; stroke-dasharray: 1.0,4.0;" x1="27" x2="27" y1="761.9063" y2="789.9063"/><line style="stroke: #A80036; stroke-width: 1.0;" x1="27" x2="27" y1="789.9063" y2="878.3359"/><line style="stroke: #A80036; stroke-width: 1.0;" x1="87" x2="87" y1="121.25" y2="257.7813"/><line style="stroke: #A80036; stroke-width: 1.0; stroke-dasharray: 1.0,4.0;" x1="87" x2="87" y1="257.7813" y2="285.7813"/><line style="stroke: #A80036; stroke-width: 1.0;" x1="87" x2="87" y1="285.7813" y2="621.375"/><line style="stroke: #A80036; stroke-width: 1.0; stroke-dasharray: 1.0,4.0;" x1="87" x2="87" y1="621.375" y2="649.375"/><line style="stroke: #A80036; stroke-width: 1.0;" x1="87" x2="87" y1="649.375" y2="761.9063"/><line style="stroke: #A80036; stroke-width: 1.0; stroke-dasharray: 1.0,4.0;" x1="87" x2="87" y1="761.9063" y2="789.9063"/><line style="stroke: #A80036; stroke-width: 1.0;" x1="87" x2="87" y1="789.9063" y2="878.3359"/><line style="stroke: #A80036; stroke-width: 1.0;" x1="174" x2="174" y1="121.25" y2="257.7813"/><line style="stroke: #A80036; stroke-width: 1.0; stroke-dasharray: 1.0,4.0;" x1="174" x2="174" y1="257.7813" y2="285.7813"/><line style="stroke: #A80036; stroke-width: 1.0;" x1="174" x2="174" y1="285.7813" y2="621.375"/><line style="stroke: #A80036; stroke-width: 1.0; stroke-dasharray: 1.0,4.0;" x1="174" x2="174" y1="621.375" y2="649.375"/><line style="stroke: #A80036; stroke-width: 1.0;" x1="174" x2="174" y1="649.375" y2="761.9063"/><line style="stroke: #A80036; stroke-width: 1.0; stroke-dasharray: 1.0,4.0;" x1="174" x2="174" y1="761.9063" y2="789.9063"/><line style="stroke: #A80036; stroke-width: 1.0;" x1="174" x2="174" y1="789.9063" y2="878.3359"/><line style="stroke: #A80036; stroke-width: 1.0;" x1="293" x2="293" y1="121.25" y2="257.7813"/><line style="stroke: #A80036; stroke-width: 1.0; stroke-dasharray: 1.0,4.0;" x1="293" x2="293" y1="257.7813" y2="285.7813"/><line style="stroke: #A80036; stroke-width: 1.0;" x1="293" x2="293" y1="285.7813" y2="621.375"/><line style="stroke: #A80036; stroke-width: 1.0; stroke-dasharray: 1.0,4.0;" x1="293" x2="293" y1="621.375" y2="649.375"/><line style="stroke: #A80036; stroke-width: 1.0;" x1="293" x2="293" y1="649.375" y2="761.9063"/><line style="stroke: #A80036; stroke-width: 1.0; stroke-dasharray: 1.0,4.0;" x1="293" x2="293" y1="761.9063" y2="789.9063"/><line style="stroke: #A80036; stroke-width: 1.0;" x1="293" x2="293" y1="789.9063" y2="878.3359"/><line style="stroke: #A80036; stroke-width: 1.0;" x1="427.5" x2="427.5" y1="121.25" y2="257.7813"/><line style="stroke: #A80036; stroke-width: 1.0; stroke-dasharray: 1.0,4.0;" x1="427.5" x2="427.5" y1="257.7813" y2="285.7813"/><line style="stroke: #A80036; stroke-width: 1.0;" x1="427.5" x2="427.5" y1="285.7813" y2="621.375"/><line style="stroke: #A80036; stroke-width: 1.0; stroke-dasharray: 1.0,4.0;" x1="427.5" x2="427.5" y1="621.375" y2="649.375"/><line style="stroke: #A80036; stroke-width: 1.0;" x1="427.5" x2="427.5" y1="649.375" y2="761.9063"/><line style="stroke: #A80036; stroke-width: 1.0; stroke-dasharray: 1.0,4.0;" x1="427.5" x2="427.5" y1="761.9063" y2="789.9063"/><line style="stroke: #A80036; stroke-width: 1.0;" x1="427.5" x2="427.5" y1="789.9063" y2="878.3359"/><line style="stroke: #A80036; stroke-width: 1.0;" x1="534.5" x2="534.5" y1="855.6875" y2="878.3359"/><text fill="#000000" font-family="sans-serif" font-size="14" lengthAdjust="spacingAndGlyphs" textLength="32" x="8" y="117.9482">User</text><ellipse cx="27" cy="47.9531" fill="#FEFECE" filter="url(#fxuehu8tmd7tb)" rx="8" ry="8" style="stroke: #A80036; stroke-width: 2.0;"/><path d="M27,55.9531 L27,82.9531 M14,63.9531 L40,63.9531 M27,82.9531 L14,97.9531 M27,82.9531 L40,97.9531 " fill="none" filter="url(#fxuehu8tmd7tb)" style="stroke: #A80036; stroke-width: 2.0;"/><text fill="#000000" font-family="sans-serif" font-size="14" lengthAdjust="spacingAndGlyphs" textLength="32" x="8" y="890.3311">User</text><ellipse cx="27" cy="903.6328" fill="#FEFECE" filter="url(#fxuehu8tmd7tb)" rx="8" ry="8" style="stroke: #A80036; stroke-width: 2.0;"/><path d="M27,911.6328 L27,938.6328 M14,919.6328 L40,919.6328 M27,938.6328 L14,953.6328 M27,938.6328 L40,953.6328 " fill="none" filter="url(#fxuehu8tmd7tb)" style="stroke: #A80036; stroke-width: 2.0;"/><text fill="#000000" font-family="sans-serif" font-size="14" lengthAdjust="spacingAndGlyphs" textLength="57" x="56" y="117.9482">Informer</text><ellipse cx="87.5" cy="88.9531" fill="#FEFECE" filter="url(#fxuehu8tmd7tb)" rx="12" ry="12" style="stroke: #A80036; stroke-width: 2.0;"/><polygon fill="#A80036" points="83.5,76.9531,89.5,71.9531,87.5,76.9531,89.5,81.9531,83.5,76.9531" style="stroke: #A80036; stroke-width: 1.0;"/><text fill="#000000" font-family="sans-serif" font-size="14" lengthAdjust="spacingAndGlyphs" textLength="57" x="56" y="890.3311">Informer</text><ellipse cx="87.5" cy="909.6328" fill="#FEFECE" filter="url(#fxuehu8tmd7tb)" rx="12" ry="12" style="stroke: #A80036; stroke-width: 2.0;"/><polygon fill="#A80036" points="83.5,897.6328,89.5,892.6328,87.5,897.6328,89.5,902.6328,83.5,897.6328" style="stroke: #A80036; stroke-width: 1.0;"/><rect fill="#FEFECE" filter="url(#fxuehu8tmd7tb)" height="30.2969" style="stroke: #A80036; stroke-width: 1.5;" width="81" x="132" y="85.9531"/><text fill="#000000" font-family="sans-serif" font-size="14" lengthAdjust="spacingAndGlyphs" textLength="67" x="139" y="105.9482">Controller</text><rect fill="#FEFECE" filter="url(#fxuehu8tmd7tb)" height="30.2969" style="stroke: #A80036; stroke-width: 1.5;" width="81" x="132" y="877.3359"/><text fill="#000000" font-family="sans-serif" font-size="14" lengthAdjust="spacingAndGlyphs" textLength="67" x="139" y="897.3311">Controller</text><rect fill="#FEFECE" filter="url(#fxuehu8tmd7tb)" height="30.2969" style="stroke: #A80036; stroke-width: 1.5;" width="128" x="227" y="85.9531"/><text fill="#000000" font-family="sans-serif" font-size="14" lengthAdjust="spacingAndGlyphs" textLength="114" x="234" y="105.9482">OtherControllers</text><rect fill="#FEFECE" filter="url(#fxuehu8tmd7tb)" height="30.2969" style="stroke: #A80036; stroke-width: 1.5;" width="128" x="227" y="877.3359"/><text fill="#000000" font-family="sans-serif" font-size="14" lengthAdjust="spacingAndGlyphs" textLength="114" x="234" y="897.3311">OtherControllers</text><rect fill="#FEFECE" filter="url(#fxuehu8tmd7tb)" height="30.2969" style="stroke: #A80036; stroke-width: 1.5;" width="95" x="378.5" y="85.9531"/><text fill="#000000" font-family="sans-serif" font-size="14" lengthAdjust="spacingAndGlyphs" textLength="81" x="385.5" y="105.9482">Kubernetes</text><rect fill="#FEFECE" filter="url(#fxuehu8tmd7tb)" height="30.2969" style="stroke: #A80036; stroke-width: 1.5;" width="95" x="378.5" y="877.3359"/><text fill="#000000" font-family="sans-serif" font-size="14" lengthAdjust="spacingAndGlyphs" textLength="81" x="385.5" y="897.3311">Kubernetes</text><rect fill="#FEFECE" filter="url(#fxuehu8tmd7tb)" height="30.2969" style="stroke: #A80036; stroke-width: 1.5;" width="90" x="487.5" y="877.3359"/><text fill="#000000" font-family="sans-serif" font-size="14" lengthAdjust="spacingAndGlyphs" textLength="76" x="494.5" y="897.3311">Concourse</text><rect fill="#FFFFFF" filter="url(#fxuehu8tmd7tb)" height="34.1328" style="stroke: #A80036; stroke-width: 1.0;" width="10" x="169.5" y="186.5156"/><rect fill="#FFFFFF" filter="url(#fxuehu8tmd7tb)" height="306.4609" style="stroke: #A80036; stroke-width: 1.0;" width="10" x="169.5" y="306.9141"/><rect fill="#FFFFFF" filter="url(#fxuehu8tmd7tb)" height="70.832" style="stroke: #A80036; stroke-width: 1.0;" width="10" x="288" y="683.0742"/><rect fill="#FFFFFF" filter="url(#fxuehu8tmd7tb)" height="97.3984" style="stroke: #A80036; stroke-width: 1.0;" width="10" x="423" y="152.3828"/><rect fill="#FFFFFF" filter="url(#fxuehu8tmd7tb)" height="29.1328" style="stroke: #A80036; stroke-width: 1.0;" width="10" x="423" y="336.0469"/><rect fill="#FFFFFF" filter="url(#fxuehu8tmd7tb)" height="29.1328" style="stroke: #A80036; stroke-width: 1.0;" width="10" x="423" y="442.5781"/><rect fill="#FFFFFF" filter="url(#fxuehu8tmd7tb)" height="41.6992" style="stroke: #A80036; stroke-width: 1.0;" width="10" x="423" y="513.4102"/><rect fill="#FFFFFF" filter="url(#fxuehu8tmd7tb)" height="29.1328" style="stroke: #A80036; stroke-width: 1.0;" width="10" x="423" y="584.2422"/><rect fill="#FFFFFF" filter="url(#fxuehu8tmd7tb)" height="29.1328" style="stroke: #A80036; stroke-width: 1.0;" width="10" x="423" y="724.7734"/><polygon fill="#A80036" points="411,148.3828,421,152.3828,411,156.3828,415,152.3828" style="stroke: #A80036; stroke-width: 1.0;"/><line style="stroke: #A80036; stroke-width: 1.0;" x1="27" x2="417" y1="152.3828" y2="152.3828"/><text fill="#000000" font-family="sans-serif" font-size="13" lengthAdjust="spacingAndGlyphs" textLength="68" x="34" y="147.3169">Concourse</text><polygon fill="#A80036" points="190.5,182.5156,180.5,186.5156,190.5,190.5156,186.5,186.5156" style="stroke: #A80036; stroke-width: 1.0;"/><line style="stroke: #A80036; stroke-width: 1.0;" x1="184.5" x2="422" y1="186.5156" y2="186.5156"/><text fill="#000000" font-family="sans-serif" font-size="13" lengthAdjust="spacingAndGlyphs" textLength="38" x="196.5" y="181.4497">Admit</text><path d="M438,165.3828 L438,190.3828 L621,190.3828 L621,175.3828 L611,165.3828 L438,165.3828 " fill="#FBFB77" filter="url(#fxuehu8tmd7tb)" style="stroke: #A80036; stroke-width: 1.0;"/><path d="M611,165.3828 L611,175.3828 L621,175.3828 L611,165.3828 " fill="#FBFB77" style="stroke: #A80036; stroke-width: 1.0;"/><text fill="#000000" font-family="sans-serif" font-size="13" lengthAdjust="spacingAndGlyphs" textLength="162" x="444" y="182.4497">validate the configuration</text><polygon fill="#A80036" points="411,216.6484,421,220.6484,411,224.6484,415,220.6484" style="stroke: #A80036; stroke-width: 1.0;"/><line style="stroke: #A80036; stroke-width: 1.0; stroke-dasharray: 2.0,2.0;" x1="174.5" x2="417" y1="220.6484" y2="220.6484"/><text fill="#000000" font-family="sans-serif" font-size="13" lengthAdjust="spacingAndGlyphs" textLength="17" x="181.5" y="215.5825">Ok</text><polygon fill="#A80036" points="38,245.7813,28,249.7813,38,253.7813,34,249.7813" style="stroke: #A80036; stroke-width: 1.0;"/><line style="stroke: #A80036; stroke-width: 1.0; stroke-dasharray: 2.0,2.0;" x1="32" x2="427" y1="249.7813" y2="249.7813"/><text fill="#000000" font-family="sans-serif" font-size="13" lengthAdjust="spacingAndGlyphs" textLength="17" x="44" y="244.7153">Ok</text><polygon fill="#A80036" points="157.5,302.9141,167.5,306.9141,157.5,310.9141,161.5,306.9141" style="stroke: #A80036; stroke-width: 1.0;"/><line style="stroke: #A80036; stroke-width: 1.0;" x1="87.5" x2="163.5" y1="306.9141" y2="306.9141"/><text fill="#000000" font-family="sans-serif" font-size="13" lengthAdjust="spacingAndGlyphs" textLength="63" x="94.5" y="301.8481">Reconcille</text><polygon fill="#A80036" points="411,332.0469,421,336.0469,411,340.0469,415,336.0469" style="stroke: #A80036; stroke-width: 1.0;"/><line style="stroke: #A80036; stroke-width: 1.0;" x1="179.5" x2="417" y1="336.0469" y2="336.0469"/><text fill="#000000" font-family="sans-serif" font-size="13" lengthAdjust="spacingAndGlyphs" textLength="167" x="186.5" y="330.981">Get Concourse K8s Object</text><polygon fill="#A80036" points="190.5,361.1797,180.5,365.1797,190.5,369.1797,186.5,365.1797" style="stroke: #A80036; stroke-width: 1.0;"/><line style="stroke: #A80036; stroke-width: 1.0; stroke-dasharray: 2.0,2.0;" x1="184.5" x2="427" y1="365.1797" y2="365.1797"/><text fill="#000000" font-family="sans-serif" font-size="13" lengthAdjust="spacingAndGlyphs" textLength="104" x="196.5" y="360.1138">Concourse Spec</text><polygon fill="#FFFFFF" filter="url(#fxuehu8tmd7tb)" points="107,378.1797,241,378.1797,251,397.1797,241,416.1797,107,416.1797,97,397.1797,107,378.1797" style="stroke: #A80036; stroke-width: 1.0;"/><text fill="#000000" font-family="sans-serif" font-size="13" lengthAdjust="spacingAndGlyphs" textLength="130" x="109" y="394.2466">create the certs and</text><text fill="#000000" font-family="sans-serif" font-size="13" lengthAdjust="spacingAndGlyphs" textLength="108" x="109" y="409.3794">other credentials</text><polygon fill="#A80036" points="411,438.5781,421,442.5781,411,446.5781,415,442.5781" style="stroke: #A80036; stroke-width: 1.0;"/><line style="stroke: #A80036; stroke-width: 1.0;" x1="179.5" x2="417" y1="442.5781" y2="442.5781"/><text fill="#000000" font-family="sans-serif" font-size="13" lengthAdjust="spacingAndGlyphs" textLength="49" x="186.5" y="437.5122">Secrets</text><polygon fill="#A80036" points="190.5,467.7109,180.5,471.7109,190.5,475.7109,186.5,471.7109" style="stroke: #A80036; stroke-width: 1.0;"/><line style="stroke: #A80036; stroke-width: 1.0; stroke-dasharray: 2.0,2.0;" x1="184.5" x2="427" y1="471.7109" y2="471.7109"/><text fill="#000000" font-family="sans-serif" font-size="13" lengthAdjust="spacingAndGlyphs" textLength="17" x="196.5" y="466.645">Ok</text><polygon fill="#A80036" points="411,509.4102,421,513.4102,411,517.4102,415,513.4102" style="stroke: #A80036; stroke-width: 1.0;"/><line style="stroke: #A80036; stroke-width: 1.0;" x1="179.5" x2="417" y1="513.4102" y2="513.4102"/><text fill="#000000" font-family="sans-serif" font-size="13" lengthAdjust="spacingAndGlyphs" textLength="161" x="186.5" y="508.3442">Deployment, Service, etc</text><path d="M438,484.7109 L438,524.7109 L676,524.7109 L676,494.7109 L666,484.7109 L438,484.7109 " fill="#FBFB77" filter="url(#fxuehu8tmd7tb)" style="stroke: #A80036; stroke-width: 1.0;"/><path d="M666,484.7109 L666,494.7109 L676,494.7109 L666,484.7109 " fill="#FBFB77" style="stroke: #A80036; stroke-width: 1.0;"/><text fill="#000000" font-family="sans-serif" font-size="13" lengthAdjust="spacingAndGlyphs" textLength="209" x="444" y="501.7778">create the resources that deploy</text><text fill="#000000" font-family="sans-serif" font-size="13" lengthAdjust="spacingAndGlyphs" textLength="217" x="444" y="516.9106">the Concourse on top of pods, etc</text><polygon fill="#A80036" points="190.5,551.1094,180.5,555.1094,190.5,559.1094,186.5,555.1094" style="stroke: #A80036; stroke-width: 1.0;"/><line style="stroke: #A80036; stroke-width: 1.0; stroke-dasharray: 2.0,2.0;" x1="184.5" x2="427" y1="555.1094" y2="555.1094"/><text fill="#000000" font-family="sans-serif" font-size="13" lengthAdjust="spacingAndGlyphs" textLength="59" x="196.5" y="550.0435">Admitted</text><polygon fill="#A80036" points="411,580.2422,421,584.2422,411,588.2422,415,584.2422" style="stroke: #A80036; stroke-width: 1.0;"/><line style="stroke: #A80036; stroke-width: 1.0;" x1="179.5" x2="417" y1="584.2422" y2="584.2422"/><text fill="#000000" font-family="sans-serif" font-size="13" lengthAdjust="spacingAndGlyphs" textLength="93" x="186.5" y="579.1763">Update Status</text><polygon fill="#A80036" points="185.5,609.375,175.5,613.375,185.5,617.375,181.5,613.375" style="stroke: #A80036; stroke-width: 1.0;"/><line style="stroke: #A80036; stroke-width: 1.0; stroke-dasharray: 2.0,2.0;" x1="179.5" x2="427" y1="613.375" y2="613.375"/><text fill="#000000" font-family="sans-serif" font-size="13" lengthAdjust="spacingAndGlyphs" textLength="17" x="191.5" y="608.3091">Ok</text><polygon fill="#A80036" points="276,679.0742,286,683.0742,276,687.0742,280,683.0742" style="stroke: #A80036; stroke-width: 1.0;"/><line style="stroke: #A80036; stroke-width: 1.0;" x1="87.5" x2="282" y1="683.0742" y2="683.0742"/><text fill="#000000" font-family="sans-serif" font-size="13" lengthAdjust="spacingAndGlyphs" textLength="63" x="94.5" y="678.0083">Reconcille</text><path d="M303,654.375 L303,694.375 L554,694.375 L554,664.375 L544,654.375 L303,654.375 " fill="#FBFB77" filter="url(#fxuehu8tmd7tb)" style="stroke: #A80036; stroke-width: 1.0;"/><path d="M544,654.375 L544,664.375 L554,664.375 L544,654.375 " fill="#FBFB77" style="stroke: #A80036; stroke-width: 1.0;"/><text fill="#000000" font-family="sans-serif" font-size="13" lengthAdjust="spacingAndGlyphs" textLength="186" x="309" y="671.4419">e.g., replicaset having now to</text><text fill="#000000" font-family="sans-serif" font-size="13" lengthAdjust="spacingAndGlyphs" textLength="230" x="309" y="686.5747">achieve the right number of replicas</text><polygon fill="#A80036" points="411,720.7734,421,724.7734,411,728.7734,415,724.7734" style="stroke: #A80036; stroke-width: 1.0;"/><line style="stroke: #A80036; stroke-width: 1.0;" x1="298" x2="417" y1="724.7734" y2="724.7734"/><text fill="#000000" font-family="sans-serif" font-size="13" lengthAdjust="spacingAndGlyphs" textLength="106" x="305" y="719.7075">Create Pods, etc</text><polygon fill="#A80036" points="304,749.9063,294,753.9063,304,757.9063,300,753.9063" style="stroke: #A80036; stroke-width: 1.0;"/><line style="stroke: #A80036; stroke-width: 1.0; stroke-dasharray: 2.0,2.0;" x1="298" x2="427" y1="753.9063" y2="753.9063"/><text fill="#000000" font-family="sans-serif" font-size="13" lengthAdjust="spacingAndGlyphs" textLength="17" x="310" y="748.8403">Ok</text><polygon fill="#FFFFFF" filter="url(#fxuehu8tmd7tb)" points="232,794.9063,353,794.9063,363,805.9063,353,817.9063,232,817.9063,222,805.9063,232,794.9063" style="stroke: #A80036; stroke-width: 1.0;"/><text fill="#000000" font-family="sans-serif" font-size="13" lengthAdjust="spacingAndGlyphs" textLength="117" x="234" y="810.9731">eventually creates</text><polygon fill="#A80036" points="475.5,825.0391,485.5,829.0391,475.5,833.0391,479.5,829.0391" style="stroke: #A80036; stroke-width: 1.0;"/><line style="stroke: #A80036; stroke-width: 1.0;" x1="293" x2="481.5" y1="829.0391" y2="829.0391"/><rect fill="#FEFECE" filter="url(#fxuehu8tmd7tb)" height="30.2969" style="stroke: #A80036; stroke-width: 1.5;" width="90" x="487.5" y="823.0391"/><text fill="#000000" font-family="sans-serif" font-size="14" lengthAdjust="spacingAndGlyphs" textLength="76" x="494.5" y="843.0342">Concourse</text><!--MD5=[e9a35ab1a1297b88d1bd131e8c8b6dce]
@startuml
title creation

  actor User
  control Informer
  participant Controller
  participant OtherControllers
  participant Kubernetes

  autoactivate on

  User -> Kubernetes : Concourse

    Kubernetes -> Controller: Admit
    note right
         validate the configuration
    end note
    Controller - -> Kubernetes: Ok

  Kubernetes - -> User: Ok

  ...

  Informer -> Controller : Reconcille
    Controller -> Kubernetes : Get Concourse K8s Object
    Kubernetes - -> Controller: Concourse Spec

    hnote over of Controller #white
         create the certs and
         other credentials
    end hnote

    Controller -> Kubernetes : Secrets
    Kubernetes - -> Controller: Ok

    Controller -> Kubernetes : Deployment, Service, etc
    note right
         create the resources that deploy
         the Concourse on top of pods, etc
    end note
    Kubernetes - -> Controller: Admitted

    Controller -> Kubernetes : Update Status
    Kubernetes - -> Controller: Ok

  deactivate

  ...

  Informer -> OtherControllers : Reconcille
    note right
         e.g., replicaset having now to
         achieve the right number of replicas
    end note

    OtherControllers -> Kubernetes : Create Pods, etc
    Kubernetes - -> OtherControllers : Ok
      autoactivate off

    create participant Concourse
      deactivate
      
    ...
      
    hnote over OtherControllers #white
      eventually creates
    end hnote
    OtherControllers -> Concourse
@enduml

PlantUML version 1.2020.02(Sun Mar 01 10:22:07 UTC 2020)
(GPL source distribution)
Java Runtime: OpenJDK Runtime Environment
JVM: OpenJDK 64-Bit Server VM
Java Version: 1.8.0_242-b08
Operating System: Linux
Default Encoding: UTF-8
Language: en
Country: null
--></g></svg>